<svg width="16" height="16" viewBox="0 0 16 16" fill="none" xmlns="http://www.w3.org/2000/svg">
<path d="M7.9997 2.39999C11.529 2.39999 14.4653 4.81422 15.0812 7.99999C14.466 11.1858 11.529 13.6 7.9997 13.6C4.47037 13.6 1.53408 11.1858 0.918152 7.99999C1.53342 4.81422 4.47037 2.39999 7.9997 2.39999ZM7.9997 12.3555C9.33458 12.3553 10.6299 11.9242 11.6735 11.133C12.7172 10.3417 13.4474 9.23716 13.7446 7.99999C13.4463 6.76382 12.7156 5.66044 11.6721 4.87023C10.6286 4.08003 9.33386 3.64975 7.9997 3.64975C6.66552 3.64975 5.37082 4.08003 4.32727 4.87023C3.28372 5.66044 2.55305 6.76382 2.25473 7.99999C2.55196 9.23716 3.28216 10.3417 4.32581 11.133C5.36946 11.9242 6.66476 12.3553 7.9997 12.3555ZM7.9997 10.8C7.2185 10.8 6.46931 10.505 5.91693 9.97991C5.36455 9.45481 5.05423 8.74262 5.05423 7.99999C5.05423 7.25739 5.36455 6.54519 5.91693 6.0201C6.46931 5.495 7.2185 5.19999 7.9997 5.19999C8.78084 5.19999 9.53003 5.495 10.0824 6.0201C10.6348 6.54519 10.9452 7.25739 10.9452 7.99999C10.9452 8.74262 10.6348 9.45481 10.0824 9.97991C9.53003 10.505 8.78084 10.8 7.9997 10.8ZM7.9997 9.55555C8.43367 9.55555 8.84989 9.39166 9.15674 9.09996C9.46366 8.8082 9.63607 8.41255 9.63607 7.99999C9.63607 7.58744 9.46366 7.19177 9.15674 6.90005C8.84989 6.60833 8.43367 6.44444 7.9997 6.44444C7.56567 6.44444 7.14947 6.60833 6.8426 6.90005C6.53572 7.19177 6.36332 7.58744 6.36332 7.99999C6.36332 8.41255 6.53572 8.8082 6.8426 9.09996C7.14947 9.39166 7.56567 9.55555 7.9997 9.55555Z" fill="#6A3F24"/>
</svg>
